<svg width="21" height="22" viewBox="0 0 21 22" fill="none" xmlns="http://www.w3.org/2000/svg">
<path d="M19.6534 10.6285L11.2293 19.0527C10.1972 20.0847 8.79752 20.6645 7.33802 20.6645C5.87852 20.6645 4.47879 20.0847 3.44677 19.0527C2.41475 18.0207 1.83496 16.6209 1.83496 15.1614C1.83496 13.7019 2.41475 12.3022 3.44677 11.2702L11.8709 2.84602C12.559 2.15801 13.4921 1.77148 14.4651 1.77148C15.4381 1.77148 16.3713 2.15801 17.0593 2.84602C17.7473 3.53404 18.1338 4.46719 18.1338 5.44019C18.1338 6.41319 17.7473 7.34634 17.0593 8.03436L8.62594 16.4585C8.28193 16.8025 7.81535 16.9958 7.32885 16.9958C6.84235 16.9958 6.37578 16.8025 6.03177 16.4585C5.68776 16.1145 5.4945 15.6479 5.4945 15.1614C5.4945 14.6749 5.68776 14.2084 6.03177 13.8644L13.8143 6.09102" stroke="black" stroke-width="2" stroke-linecap="round" stroke-linejoin="round"/>
</svg>
