<svg width="47" height="18" viewBox="0 0 47 18" fill="none" xmlns="http://www.w3.org/2000/svg">
<g clip-path="url(#clip0_520_567)">
<path d="M21.092 5.97659C20.9913 6.60524 20.7124 7.10708 20.2552 7.48206C19.798 7.8543 19.2416 8.03493 18.5857 8.02391C18.2075 8.01563 17.8755 7.92464 17.5897 7.75089C17.3068 7.57719 17.085 7.32488 16.9244 6.99399C16.7639 6.66036 16.6741 6.28403 16.655 5.86485C16.6387 5.55057 16.6768 5.12316 16.7693 4.58271C16.8619 4.03952 17.0387 3.55284 17.3 3.1227C17.5639 2.69255 17.8864 2.36856 18.2674 2.15073C18.651 1.9329 19.0769 1.82812 19.545 1.83639C20.1355 1.84742 20.6022 2.0363 20.945 2.40303C21.2906 2.767 21.4743 3.27021 21.4961 3.91268H20.496C20.4824 3.48254 20.3926 3.17233 20.2266 2.98207C20.0634 2.78906 19.8198 2.68842 19.496 2.68014C19.0524 2.66636 18.681 2.82766 18.3817 3.16406C18.0823 3.50046 17.8809 3.98988 17.7775 4.63235L17.6959 5.18243L17.6592 5.6043C17.6374 5.88834 17.6564 6.15578 17.7163 6.40674C17.7789 6.65487 17.8878 6.84513 18.0428 6.97748C18.198 7.10708 18.3953 7.17602 18.6347 7.1843C19.3939 7.21463 19.881 6.8148 20.096 5.98482L21.092 5.97659ZM24.0023 8.02391C23.6159 8.01563 23.2758 7.92185 22.9819 7.74266C22.6907 7.56342 22.4635 7.30422 22.3002 6.9651C22.1369 6.62315 22.0444 6.23574 22.0226 5.80284C22.0036 5.45819 22.0335 5.05562 22.1124 4.59513C22.194 4.13465 22.3369 3.71553 22.541 3.33777C22.7478 2.95726 22.9941 2.64705 23.2798 2.40717C23.7506 2.01562 24.2949 1.82537 24.9126 1.83639C25.5004 1.84742 25.9684 2.05284 26.3167 2.45266C26.6677 2.85248 26.8595 3.39291 26.8922 4.07398C26.9086 4.4159 26.8773 4.80884 26.7983 5.25276C26.7222 5.69394 26.5888 6.10061 26.3983 6.47289C26.2105 6.84239 25.9765 7.15118 25.6963 7.39935C25.2119 7.82951 24.6472 8.03768 24.0023 8.02391ZM25.8595 4.76883L25.8963 4.33042C25.9126 4.02987 25.8867 3.75275 25.8187 3.49908C25.7507 3.24264 25.635 3.04825 25.4718 2.9159C25.3112 2.78078 25.1072 2.70909 24.8595 2.70082C24.5166 2.68979 24.2118 2.78768 23.9451 2.99448C23.6812 3.20129 23.4662 3.51562 23.3002 3.9375C23.1369 4.35938 23.0417 4.8888 23.0145 5.52573C22.9873 6.03032 23.0635 6.4274 23.2431 6.71693C23.4227 7.00646 23.692 7.15671 24.0512 7.16774C24.522 7.18151 24.9099 7.00232 25.2146 6.63003C25.5221 6.25779 25.7234 5.7339 25.8187 5.05836L25.8595 4.76883Z" fill="#2B303A"/>
<path d="M17.6454 14.46H20.066L19.8741 15.5767H16.0576L17.0862 9.5546H18.4862L17.6454 14.46ZM24.5192 13.0247H22.3354L22.0864 14.46H24.6703L24.4784 15.5767H20.4986L21.5272 9.5546H25.5151L25.3233 10.6755H22.7354L22.5151 11.9453H24.7029L24.5192 13.0247ZM30.0051 14.8363C29.782 15.101 29.4568 15.3065 29.0296 15.4526C28.6023 15.596 28.1288 15.6635 27.6091 15.6553C27.1111 15.6498 26.6907 15.523 26.3478 15.2747C26.0049 15.0266 25.76 14.6806 25.6131 14.2366C25.4662 13.7927 25.4267 13.2922 25.4948 12.7352L25.5274 12.4871C25.6526 11.5523 25.9764 10.8119 26.4989 10.2661C27.0241 9.72007 27.6662 9.45398 28.4255 9.4678C29.0894 9.47882 29.5997 9.65945 29.9562 10.0096C30.3126 10.3598 30.5113 10.8658 30.5521 11.5275L29.2133 11.5234C29.1942 11.2007 29.1153 10.965 28.9765 10.8161C28.8405 10.6672 28.6459 10.5887 28.3929 10.5803C28.0173 10.5666 27.7071 10.7168 27.4622 11.0312C27.2173 11.3428 27.0499 11.7895 26.9601 12.3712C26.8839 12.8675 26.8567 13.2536 26.8785 13.5293C26.9193 14.1939 27.2145 14.5303 27.7642 14.5385C28.0962 14.5441 28.3874 14.4628 28.6377 14.2945L28.8214 13.3556H27.854L28.0254 12.3589H30.3888L30.0051 14.8363ZM34.6666 13.0247H32.4828L32.2338 14.46H34.8176L34.6257 15.5767H30.646L31.6746 9.5546H35.6625L35.4707 10.6755H32.8828L32.6624 11.9453H34.8503L34.6666 13.0247ZM40.0464 15.5767H38.6953L37.2749 11.7757L36.6218 15.5767H35.2258L36.2544 9.5546H37.6177L39.0341 13.3556L39.6831 9.5546H41.0791L40.0464 15.5767ZM40.9648 15.5767L41.9934 9.5546L43.7404 9.55874C44.2547 9.55874 44.7037 9.69667 45.0876 9.97238C45.4711 10.2454 45.743 10.619 45.9038 11.0932C46.0424 11.5096 46.0849 11.959 46.0305 12.4416L46.0017 12.6938C45.9282 13.2343 45.7515 13.7237 45.4711 14.1622C45.1908 14.6006 44.8303 14.9452 44.3892 15.1962C43.9486 15.4443 43.4724 15.5711 42.9608 15.5767H40.9648ZM43.2016 10.6755L42.5526 14.46L42.9608 14.4641C43.4397 14.4641 43.8234 14.2766 44.1119 13.9016C44.403 13.5266 44.5757 12.953 44.6301 12.181L44.6386 12.0445C44.6576 11.6033 44.5894 11.2683 44.4344 11.0395C44.2792 10.8106 44.0466 10.6907 43.7363 10.6796L43.2016 10.6755Z" fill="#2B303A"/>
<path fill-rule="evenodd" clip-rule="evenodd" d="M5.29002 11.0154C7.23775 11.0154 8.81671 9.41547 8.81671 7.44186C6.86898 7.44186 5.29002 9.04174 5.29002 11.0154ZM8.35627 5.67511C5.802 5.89827 3.76669 7.96062 3.54645 10.5488C2.48143 9.93378 1.76334 8.77278 1.76334 7.44186C1.76334 5.4682 3.3423 3.86831 5.29002 3.86831C6.60353 3.86831 7.74934 4.59592 8.35627 5.67511ZM10.3534 5.88477C9.69503 3.68372 7.67719 2.08154 5.29002 2.08154C2.36843 2.08154 0 4.48143 0 7.44186C0 9.8607 1.58117 11.9054 3.75334 12.5725C4.41171 14.7735 6.42953 16.3757 8.81671 16.3757C11.7383 16.3757 14.1067 13.9758 14.1067 11.0154C14.1067 8.59651 12.5256 6.55185 10.3534 5.88477ZM10.5603 7.90842C10.34 10.4966 8.30472 12.5589 5.7505 12.7821C6.35739 13.8613 7.50324 14.5889 8.81671 14.5889C10.7644 14.5889 12.3434 12.989 12.3434 11.0154C12.3434 9.68439 11.6253 8.52339 10.5603 7.90842Z" fill="url(#paint0_linear_520_567)"/>
</g>
<defs>
<linearGradient id="paint0_linear_520_567" x1="0" y1="2.08154" x2="14.2929" y2="16.1871" gradientUnits="userSpaceOnUse">
<stop stop-color="#F05F57"/>
<stop offset="1" stop-color="#360940"/>
</linearGradient>
<clipPath id="clip0_520_567">
<rect width="46.5" height="18" fill="white"/>
</clipPath>
</defs>
</svg>
