<svg width="104" height="40" viewBox="0 0 104 40" fill="none" xmlns="http://www.w3.org/2000/svg">
<path d="M80.1503 35.5896C79.645 35.0763 79.3234 34.5176 80.0584 33.6323L82.0298 31.1629C82.4892 30.6029 83.0851 30.2776 83.9566 31.0696C85.3321 32.4203 88.1776 33.8656 90.8826 33.8656C93.7727 33.8656 96.4332 32.4203 96.4332 29.3923V26.0363C95.0117 27.6669 93.0391 28.6923 90.3327 28.6923C84.9659 28.6923 81.2502 24.9189 81.2502 19.5136L81.2042 15.1803V13.7816L79.3247 13.5016C77.6723 13.2216 77.3061 12.4776 77.3061 11.3589V9.07495C77.3061 7.72428 77.9939 6.97895 79.3247 6.97895H86.8926C88.1776 6.97895 88.9099 7.72561 88.9099 9.12161V18.0683C88.9099 20.2589 90.1489 21.8429 92.2594 21.8429C94.4146 21.8429 95.6982 20.2123 95.6982 18.0216V9.44828C95.6982 8.09761 96.4332 7.35095 97.8087 7.35095H101.707C102.993 7.35095 103.773 8.09761 103.773 9.44828V27.8083C103.773 35.6349 98.2681 39.6429 90.7921 39.6429C86.0211 39.6429 82.4892 37.9189 80.1503 35.5896ZM59.1411 30.8363C57.8116 30.8363 57.0779 30.0896 57.0779 28.7389V9.44828C57.0779 8.09761 57.8116 7.35095 59.1411 7.35095H61.5732C62.9027 7.35095 63.6364 8.09761 63.6364 9.44828V11.5443C65.2889 8.70295 67.5818 7.21095 70.5179 7.25761L72.8108 7.30428C74.1404 7.35095 74.9213 8.05095 74.9213 9.40161V11.2656C74.9213 12.5696 74.1404 13.3629 72.8108 13.3629H70.5179C66.7103 13.3629 65.1051 15.1336 65.1051 19.1403V28.7403C65.1051 30.0909 64.3255 30.8363 63.0406 30.8363H59.1411ZM45.4268 19.1869C45.4268 16.1589 43.3636 13.8749 40.5653 13.8749C37.7211 13.8749 35.7025 16.1589 35.7025 19.1869C35.7025 22.2163 37.7211 24.4989 40.5194 24.4989C43.2717 24.4989 45.4281 22.1696 45.4281 19.1869H45.4268ZM27.7671 19.1869C27.7671 12.2443 32.584 6.93228 39.2344 6.93228C42.2624 6.93228 44.8309 8.18961 46.7117 10.1469V9.16828C46.7117 7.86428 47.4454 7.07095 48.8209 7.07095H51.0233C52.3529 7.07095 53.0866 7.86428 53.0866 9.16828V28.7389C53.0866 30.0909 52.3529 30.8363 51.0233 30.8363H48.8209C47.4914 30.8363 46.7117 30.1376 46.7117 28.8789V27.9456C44.9687 30.0443 42.4002 31.4416 39.2344 31.4416C32.6299 31.4416 27.7671 26.1296 27.7671 19.1869ZM1.16274 27.1069C0.108803 26.1763 -0.120884 25.1509 0.796553 24.0803L2.49362 21.9363C3.41237 20.9109 4.37443 20.7709 5.47562 21.5629C7.26455 23.1483 10.2006 24.4989 12.6773 24.4989C15.1999 24.4989 16.8511 23.5203 16.8511 22.0296C16.8511 20.0256 14.4662 19.7456 11.3924 18.7683C6.85112 17.4163 1.66805 14.9003 1.66805 9.12161C1.66805 3.71761 6.39305 -0.0117188 13.2272 -0.0117188C17.2632 -0.0117188 20.7951 1.29495 23.2272 3.29761C24.3271 4.18295 24.6486 5.20828 23.7771 6.28028L22.1719 8.32961C21.3004 9.40161 20.2452 9.54295 19.1899 8.70295C17.6766 7.49228 15.7039 6.46561 13.411 6.46561C11.3005 6.46561 9.97093 7.39895 9.97093 8.74961C9.97093 10.4736 12.1261 11.3123 14.3744 12.0109C19.4196 13.5949 25.1986 15.3203 25.1986 22.0296C25.1986 28.1336 19.6493 31.3963 13.1813 31.3963C8.22793 31.3963 3.91505 29.7176 1.16405 27.1083L1.16274 27.1069Z" fill="#2BD8B5"/>
</svg>
