<svg width="124" height="32" viewBox="0 0 124 32" fill="none" xmlns="http://www.w3.org/2000/svg">
<path d="M63.524 30.6896C63.3157 31.0688 63.0031 31.3617 62.5864 31.5857C62.1697 31.8098 61.6487 31.9305 61.041 31.9305C60.5201 31.9305 60.0514 31.8443 59.6346 31.6719C59.2178 31.4996 58.888 31.2583 58.645 30.9481C58.4018 30.6379 58.2803 30.2587 58.2803 29.8452H59.1831C59.2178 30.2415 59.3916 30.5518 59.6867 30.8102C59.9819 31.0688 60.4333 31.1894 61.0236 31.1894C61.6314 31.1894 62.1176 31.0342 62.4821 30.7241C62.8468 30.4139 63.0204 30.0175 63.0204 29.5521C63.0204 29.1903 62.9336 28.9145 62.7427 28.7077C62.5517 28.5009 62.3259 28.3457 62.0481 28.2596C61.7703 28.1562 61.3883 28.07 60.9195 27.9666C60.3465 27.846 59.895 27.7081 59.5478 27.5874C59.2005 27.4496 58.9054 27.2256 58.6623 26.9153C58.4192 26.6052 58.2976 26.1743 58.2976 25.64C58.2976 24.9334 58.5407 24.3819 59.0269 23.9511C59.5131 23.5202 60.1902 23.3135 61.0584 23.3135C61.805 23.3135 62.3953 23.503 62.8468 23.8649C63.2983 24.2268 63.5934 24.7266 63.6802 25.3298H62.7079C62.6732 24.9851 62.4995 24.6922 62.187 24.4336C61.8744 24.1751 61.4578 24.0545 60.9195 24.0545C60.3638 24.0545 59.9298 24.1924 59.5825 24.4508C59.2526 24.7266 59.079 25.1057 59.079 25.6228C59.079 25.9847 59.1658 26.2604 59.3568 26.4672C59.5478 26.6741 59.7908 26.8292 60.0687 26.9326C60.3638 27.0359 60.7285 27.1393 61.2146 27.2256C61.7876 27.3634 62.2391 27.4841 62.5864 27.6047C62.9336 27.7253 63.2114 27.9494 63.4545 28.2423C63.6976 28.5354 63.8191 28.9662 63.8191 29.4832C63.8365 29.9313 63.7323 30.3104 63.524 30.6896Z" fill="#061317"/>
<path d="M67.9689 11.1113V20.9864H65.5554V16.8847H61.7181V20.9691H59.3047V11.1113H61.7181V15.0579H65.5554V11.1113H67.9689Z" fill="#061317"/>
<path d="M81.3907 11.1113L77.9354 17.7981V20.9692H75.5219V17.7981L72.084 11.1113H74.8274L76.7373 15.5749L78.6299 11.1113H81.3907Z" fill="#061317"/>
<path d="M93.7185 18.6082C93.2497 19.3664 92.6072 19.9352 91.7738 20.3659C90.9404 20.7796 90.0201 20.9864 88.9784 20.9864H85.4883V11.1113H88.9784C90.0201 11.1113 90.9578 11.3181 91.7738 11.7317C92.5899 12.1454 93.2323 12.7314 93.7012 13.4724C94.17 14.2307 94.3957 15.0751 94.3957 16.0403C94.4304 17.0053 94.1874 17.8498 93.7185 18.6082ZM91.1661 18.3151C91.687 17.7464 91.9648 17.0053 91.9648 16.0575C91.9648 15.1096 91.7044 14.3513 91.1661 13.7998C90.6452 13.2311 89.9159 12.9554 88.9784 12.9554H87.9018V19.1768H88.9784C89.9159 19.1595 90.6452 18.8666 91.1661 18.3151Z" fill="#061317"/>
<path d="M103.737 20.9864L101.497 17.1432H101.219V20.9864H98.8057V11.1113H102.73C103.511 11.1113 104.171 11.2492 104.727 11.5249C105.282 11.8007 105.699 12.1798 105.977 12.6279C106.254 13.0932 106.393 13.5758 106.393 14.1101C106.393 14.6788 106.22 15.2474 105.872 15.7817C105.525 16.3332 104.952 16.7124 104.154 16.9364L106.584 20.9519H103.737V20.9864ZM101.219 15.3165H102.712C103.077 15.3165 103.372 15.213 103.581 14.989C103.789 14.765 103.893 14.4892 103.893 14.1273C103.893 13.7826 103.789 13.4896 103.563 13.2655C103.337 13.0415 103.06 12.9209 102.695 12.9209H101.202V15.3165H101.219Z" fill="#061317"/>
<path d="M116.847 19.3151H113.27L112.714 20.9695H110.145L113.6 11.0771H116.552L119.99 20.9695H117.402L116.847 19.3151ZM116.239 17.4882L115.058 13.9724L113.878 17.4882H116.239Z" fill="#061317"/>
<path d="M120.405 11.335V11.852H119.641V14.1269H118.964V11.852H118.2V11.335H120.405Z" fill="#061317"/>
<path d="M124 11.335V14.1269H123.323V12.5585L122.663 14.1269H122.159L121.499 12.5585V14.1269H120.822V11.335H121.604L122.42 13.2651L123.218 11.335H124Z" fill="#061317"/>
<path d="M72.9345 23.416V24.1054H70.712V31.8262H69.8612V24.1054H67.6387V23.416H72.9345Z" fill="#061317"/>
<path d="M77.7785 23.4166V29.0004C77.7785 29.7414 77.9869 30.3102 78.3862 30.6722C78.7856 31.034 79.3413 31.2237 80.0532 31.2237C80.765 31.2237 81.3207 31.034 81.72 30.6722C82.1194 30.3102 82.3277 29.7587 82.3277 29.0004V23.3994H83.1959V29.0004C83.1959 29.9656 82.9007 30.6894 82.3277 31.172C81.7373 31.6717 80.9907 31.913 80.0705 31.913C79.1503 31.913 78.4036 31.6717 77.8133 31.172C77.223 30.6722 76.9277 29.9483 76.9277 29.0004V23.3994H77.7785V23.4166Z" fill="#061317"/>
<path d="M93.3019 30.7577C92.5379 31.4815 91.4613 31.8435 90.0723 31.8435H87.4678V23.416H90.0723C90.9752 23.416 91.7739 23.5883 92.4164 23.9158C93.0762 24.2604 93.5797 24.743 93.9269 25.3807C94.2743 26.0184 94.4479 26.7766 94.4479 27.6728C94.4652 29.017 94.0832 30.0339 93.3019 30.7577ZM92.6941 30.2579C93.2845 29.6374 93.5797 28.7758 93.5797 27.6728C93.5797 26.5699 93.2845 25.7081 92.6941 25.0876C92.1038 24.4672 91.2356 24.1571 90.0896 24.1571H88.336V31.1713H90.0896C91.2183 31.1713 92.0864 30.8783 92.6941 30.2579Z" fill="#061317"/>
<path d="M99.2226 23.416V31.8435H98.3545V23.416H99.2226Z" fill="#061317"/>
<path d="M109.606 23.8816C110.266 24.2434 110.787 24.7605 111.169 25.4154C111.551 26.0703 111.742 26.8113 111.742 27.6385C111.742 28.4658 111.551 29.2069 111.169 29.8618C110.787 30.5167 110.266 31.0336 109.606 31.3956C108.946 31.7575 108.217 31.9471 107.418 31.9471C106.619 31.9471 105.89 31.7575 105.23 31.3956C104.571 31.0336 104.05 30.5167 103.668 29.8618C103.286 29.2069 103.095 28.4658 103.095 27.6385C103.095 26.8113 103.286 26.0703 103.668 25.4154C104.05 24.7605 104.571 24.2434 105.23 23.8816C105.89 23.5196 106.619 23.3301 107.418 23.3301C108.217 23.3301 108.946 23.5024 109.606 23.8816ZM105.665 24.5192C105.144 24.8122 104.727 25.2258 104.432 25.76C104.137 26.2943 103.98 26.9147 103.98 27.6213C103.98 28.3279 104.137 28.9483 104.432 29.4826C104.727 30.0168 105.144 30.4305 105.665 30.7407C106.185 31.0337 106.776 31.1888 107.418 31.1888C108.061 31.1888 108.651 31.0337 109.172 30.7407C109.693 30.4477 110.11 30.0341 110.405 29.4826C110.7 28.9483 110.856 28.3279 110.856 27.6213C110.856 26.9147 110.7 26.2943 110.405 25.76C110.11 25.2258 109.693 24.8122 109.172 24.5192C108.651 24.2262 108.061 24.0711 107.418 24.0711C106.776 24.0711 106.185 24.2262 105.665 24.5192Z" fill="#061317"/>
<path d="M116.273 31.1541H120.562V31.8435H115.301V31.1541L119.59 24.1054H115.301V23.416H120.562V24.1054L116.273 31.1541Z" fill="#061317"/>
<path d="M25.2118 28.8093V30.7538H19.9773V28.8093C20.3534 28.8093 20.6982 28.6537 20.949 28.4048C21.1997 28.1559 21.3564 27.8137 21.3564 27.4403V16.6447C21.3564 10.5157 16.357 5.55344 10.1821 5.55344C6.9222 5.55344 3.99146 6.9379 1.95405 9.13125L0.355469 7.20234C2.8317 4.66676 6.32665 3.08008 10.1664 3.08008C17.7048 3.08008 23.8327 9.14681 23.8327 16.6447V27.4403C23.8327 28.2026 24.4439 28.8093 25.2118 28.8093Z" fill="#061317"/>
<path d="M50.6945 9.13121L52.2773 7.2023L45.0211 0H44.5039L50.6945 9.13121Z" fill="#061317"/>
<path d="M1.93838 9.13121L0.355469 7.2023L7.61179 0H8.12897L1.93838 9.13121Z" fill="#061317"/>
<path d="M20.1025 20.8449V30.2873H17.6106V19.8182C17.6106 15.8982 14.6172 12.5071 10.6677 12.2582C8.41092 12.1182 6.34215 12.9893 4.90029 14.4516L4.88462 14.4204L3.5368 12.8026L3.31738 12.5382C5.15106 10.7804 7.65864 9.7226 10.417 9.78483C15.7456 9.89371 20.1025 14.576 20.1025 19.8649V20.8449Z" fill="#061317"/>
<path d="M49.3155 12.538L49.096 12.8025L47.7483 14.4203L47.7325 14.4513C46.2751 12.9892 44.2064 12.118 41.9494 12.258C38.0157 12.507 35.0066 15.8981 35.0066 19.8181V30.3493H32.5146V20.8448V19.7558C32.5146 14.3581 36.8403 9.86246 42.2787 9.78469C45.0213 9.73802 47.4974 10.7958 49.3155 12.538Z" fill="#061317"/>
<path d="M47.7325 14.4509L49.3155 12.5375L44.5668 7.82422H44.1592L47.7325 14.4509Z" fill="#061317"/>
<path d="M4.90029 14.4509L3.31738 12.5375L8.06612 7.82422H8.4736L4.90029 14.4509Z" fill="#061317"/>
<path d="M46.4004 18.5887L46.1809 18.8687L46.1653 18.8842L44.8332 20.502C44.1279 19.9264 43.2188 19.6152 42.2158 19.6775C40.2411 19.802 38.7366 21.4976 38.7366 23.4576V26.7243C38.7366 28.9643 36.9185 30.7687 34.6617 30.7687H32.5146V28.2954H34.6617C35.5394 28.2954 36.2447 27.5953 36.2447 26.7243V23.4886C36.2447 20.0508 39.0187 17.1885 42.4979 17.2042C43.9711 17.2042 45.3346 17.7175 46.4004 18.5887Z" fill="#061317"/>
<path d="M20.1025 28.2955V30.7688H17.9554C15.6985 30.7688 13.8805 28.9643 13.8805 26.7243V23.4576C13.8805 21.4976 12.376 19.8021 10.4013 19.6776C9.41391 19.6154 8.48925 19.942 7.79966 20.502L6.46751 18.8843L6.45184 18.8686L6.23242 18.5886C7.36083 17.6709 8.80269 17.142 10.3856 17.2042C13.7552 17.3131 16.3724 20.1442 16.3724 23.4887V26.7243C16.3724 27.5954 17.0778 28.2955 17.9554 28.2955H20.1025Z" fill="#061317"/>
<path d="M44.8178 20.503L46.4007 18.5897L42.8274 15.043H42.4199L44.8178 20.503Z" fill="#061317"/>
<path d="M7.79966 20.503L6.23242 18.5897L9.80573 15.043H10.2132L7.79966 20.503Z" fill="#061317"/>
<path d="M29.1293 19.1182H23.5029V21.5915H29.1293V19.1182Z" fill="#061317"/>
<path d="M52.2777 7.20234L50.6948 9.1157C48.6574 6.92234 45.7266 5.53789 42.4668 5.53789C36.2919 5.53789 31.2924 10.5002 31.2924 16.6291V27.2848C31.2924 28.1248 31.982 28.7936 32.8127 28.7936V30.7381H27.2803V28.7936C27.7035 28.7936 28.0796 28.6226 28.3461 28.3581C28.6282 28.0781 28.7849 27.7048 28.7849 27.2848V16.6447C28.7849 9.16237 34.8971 3.08008 42.4512 3.08008C46.3066 3.08008 49.8015 4.66676 52.2777 7.20234Z" fill="#061317"/>
</svg>
