<svg width="105" height="40" viewBox="0 0 105 40" fill="none" xmlns="http://www.w3.org/2000/svg">
<path d="M47.6268 13.2815C47.3995 14.6785 46.7696 15.7937 45.7373 16.627C44.705 17.4542 43.4484 17.8556 41.9675 17.8311C41.1134 17.8127 40.3637 17.6105 39.7185 17.2244C39.0796 16.8384 38.5787 16.2777 38.2162 15.5424C37.8537 14.801 37.6509 13.9647 37.6079 13.0332C37.571 12.3348 37.657 11.385 37.8659 10.184C38.0749 8.97693 38.4743 7.89543 39.0642 6.93955C39.6602 5.98367 40.3883 5.26369 41.2486 4.77962C42.115 4.29555 43.0766 4.06272 44.1335 4.08109C45.4669 4.1056 46.5208 4.52533 47.2949 5.34028C48.0753 6.1491 48.49 7.26736 48.5392 8.69507H46.281C46.2503 7.73919 46.0475 7.04985 45.6727 6.62705C45.3041 6.19813 44.7542 5.97448 44.0229 5.95609C43.0213 5.92546 42.1826 6.28392 41.5067 7.03146C40.8307 7.77901 40.376 8.86663 40.1425 10.2943L39.9583 11.5167L39.8753 12.4542C39.8261 13.0854 39.8691 13.6797 40.0043 14.2374C40.1456 14.7888 40.3915 15.2116 40.7416 15.5057C41.0919 15.7937 41.5374 15.9469 42.0781 15.9653C43.7925 16.0327 44.8924 15.1442 45.3778 13.2998L47.6268 13.2815ZM54.1985 17.8311C53.3259 17.8127 52.5579 17.6043 51.8943 17.2061C51.2368 16.8078 50.7237 16.2318 50.355 15.4782C49.9863 14.7183 49.7774 13.8574 49.7282 12.8954C49.6853 12.1295 49.7527 11.2349 49.931 10.2116C50.1153 9.18833 50.438 8.25695 50.8988 7.41749C51.3657 6.5719 51.9219 5.88256 52.5671 5.34948C53.6301 4.47937 54.8591 4.05659 56.2539 4.08109C57.5812 4.1056 58.638 4.56209 59.4245 5.45058C60.2171 6.33906 60.6503 7.54003 60.7241 9.05352C60.761 9.81333 60.6903 10.6865 60.5121 11.673C60.3401 12.6534 60.039 13.5571 59.6088 14.3844C59.1848 15.2055 58.6564 15.8917 58.0236 16.4432C56.9298 17.3991 55.6548 17.8617 54.1985 17.8311ZM58.3922 10.5976L58.4752 9.62338C58.512 8.95548 58.4536 8.33967 58.3 7.77595C58.1464 7.20609 57.8853 6.7741 57.5166 6.47999C57.1541 6.17974 56.6933 6.02043 56.134 6.00205C55.3599 5.97754 54.6716 6.19507 54.0694 6.65462C53.4734 7.11419 52.9879 7.81272 52.6131 8.75021C52.2444 9.68772 52.0294 10.8642 51.968 12.2796C51.9065 13.4009 52.0786 14.2833 52.4842 14.9267C52.8897 15.5701 53.4979 15.904 54.309 15.9285C55.3721 15.9591 56.2478 15.5609 56.9359 14.7336C57.6302 13.9064 58.0849 12.7422 58.3 11.241L58.3922 10.5976Z" fill="#2B303A"/>
<path d="M39.8441 32.1339H45.3099L44.8767 34.6155H36.2588L38.5814 21.2331H41.7428L39.8441 32.1339ZM55.3656 28.9445H50.4345L49.8722 32.1339H55.7067L55.2734 34.6155H46.2869L48.6095 21.2331H57.6145L57.1814 23.7239H51.3377L50.8401 26.5457H55.7804L55.3656 28.9445ZM67.7532 32.9703C67.2493 33.5585 66.515 34.015 65.5503 34.3398C64.5856 34.6584 63.5164 34.8085 62.3429 34.7902C61.2183 34.7779 60.269 34.4961 59.4948 33.9445C58.7205 33.3931 58.1675 32.6241 57.8357 31.6376C57.5039 30.651 57.4148 29.5389 57.5685 28.3011L57.6422 27.7497C57.9249 25.6725 58.6561 24.0272 59.8359 22.8141C61.0218 21.6008 62.4718 21.0095 64.1863 21.0402C65.6855 21.0647 66.8376 21.4661 67.6426 22.2442C68.4475 23.0224 68.8961 24.1468 68.9883 25.6174L65.9652 25.6082C65.9221 24.8912 65.7439 24.3674 65.4305 24.0364C65.1233 23.7056 64.6839 23.531 64.1126 23.5125C63.2645 23.4819 62.5641 23.8158 62.011 24.5144C61.4581 25.2068 61.0801 26.1995 60.8774 27.4923C60.7052 28.5952 60.6438 29.4531 60.693 30.0658C60.7851 31.5427 61.4518 32.2902 62.693 32.3085C63.4427 32.3208 64.1002 32.1401 64.6655 31.7663L65.0803 29.6798H62.8959L63.2829 27.4648H68.6196L67.7532 32.9703ZM78.2791 28.9445H73.3479L72.7857 32.1339H78.62L78.1868 34.6155H69.2003L71.523 21.2331H80.5279L80.0947 23.7239H74.2512L73.7534 26.5457H78.6938L78.2791 28.9445ZM90.427 34.6155H87.3762L84.1687 26.1688L82.694 34.6155H79.5418L81.8644 21.2331H84.9429L88.1412 29.6798L89.6067 21.2331H92.7589L90.427 34.6155ZM92.5009 34.6155L94.8235 21.2331L98.7684 21.2423C99.9297 21.2423 100.943 21.5488 101.81 22.1615C102.676 22.7681 103.29 23.5984 103.653 24.6523C103.966 25.5775 104.062 26.5763 103.939 27.6487L103.874 28.2092C103.708 29.4103 103.309 30.4978 102.676 31.4722C102.043 32.4464 101.229 33.2123 100.233 33.7699C99.2385 34.3214 98.1631 34.6032 97.008 34.6155H92.5009ZM97.5517 23.7239L96.0862 32.1339L97.008 32.1431C98.0894 32.1431 98.9558 31.7264 99.6072 30.8931C100.264 30.0597 100.654 28.7852 100.777 27.0696L100.796 26.7663C100.839 25.7858 100.685 25.0414 100.335 24.5328C99.985 24.0242 99.4597 23.7577 98.7591 23.7331L97.5517 23.7239Z" fill="#2B303A"/>
<path fill-rule="evenodd" clip-rule="evenodd" d="M11.9452 24.479C16.3433 24.479 19.9087 20.9236 19.9087 16.5378C15.5106 16.5378 11.9452 20.0931 11.9452 24.479ZM18.869 12.6117C13.1013 13.1076 8.50542 17.6906 8.00811 23.4421C5.60324 22.0754 3.98174 19.4954 3.98174 16.5378C3.98174 12.1519 7.54712 8.59657 11.9452 8.59657C14.9112 8.59657 17.4985 10.2135 18.869 12.6117ZM23.3787 13.0776C21.892 8.18638 17.3356 4.62598 11.9452 4.62598C5.34806 4.62598 0 9.95906 0 16.5378C0 21.913 3.57039 26.4567 8.47528 27.9392C9.96192 32.8303 14.5183 36.3907 19.9087 36.3907C26.5059 36.3907 31.8539 31.0577 31.8539 24.479C31.8539 19.1037 28.2836 14.56 23.3787 13.0776ZM23.8459 17.5746C23.3485 23.3261 18.7526 27.9091 12.985 28.405C14.3554 30.8032 16.9428 32.4201 19.9087 32.4201C24.3068 32.4201 27.8722 28.8647 27.8722 24.479C27.8722 21.5212 26.2507 18.9412 23.8459 17.5746Z" fill="url(#paint0_linear_189_1113)"/>
<defs>
<linearGradient id="paint0_linear_189_1113" x1="0" y1="4.62598" x2="31.7646" y2="36.4798" gradientUnits="userSpaceOnUse">
<stop stop-color="#F05F57"/>
<stop offset="1" stop-color="#360940"/>
</linearGradient>
</defs>
</svg>
