<svg width="50" height="50" viewBox="0 0 50 50" fill="none" xmlns="http://www.w3.org/2000/svg">
<circle cx="25" cy="25" r="25" fill="white"/>
<path d="M18.4142 24.1836C15.6251 24.1836 13.3633 26.4939 13.3633 29.3465C13.3633 32.199 15.6251 34.5056 18.4142 34.5056C21.2033 34.5056 23.4651 32.1953 23.4651 29.3465C23.4651 26.4976 21.2069 24.1836 18.4142 24.1836ZM18.4178 32.9827C16.4506 32.9827 14.8542 31.3485 14.8542 29.3465C14.8542 27.337 16.4542 25.7065 18.4178 25.7065C20.3815 25.7065 21.9778 27.337 21.9778 29.3465C21.9778 31.3522 20.3815 32.9827 18.4178 32.9827Z" fill="#2864F1"/>
<path d="M31.5851 24.1836C28.796 24.1836 26.5342 26.4939 26.5342 29.3427C26.5342 32.1916 28.7924 34.5056 31.5851 34.5056C34.3742 34.5056 36.636 32.1953 36.636 29.3465C36.636 26.4976 34.3742 24.1836 31.5851 24.1836ZM31.5851 32.9827C29.6178 32.9827 28.0215 31.3485 28.0215 29.3465C28.0215 27.337 29.6215 25.7065 31.5851 25.7065C33.5487 25.7065 35.1451 27.337 35.1451 29.3465C35.1451 31.3522 33.5487 32.9827 31.5851 32.9827Z" fill="#2864F1"/>
<path d="M28.527 19.0397C28.887 19.2699 29.3634 19.1585 29.5888 18.7908C29.9088 18.2745 30.5816 17.5577 30.9597 17.5799C31.1307 17.5874 31.3488 17.8325 31.5452 18.2337C32.207 19.5819 32.9816 21.8514 33.6034 23.8162C34.3634 24.106 35.0507 24.5517 35.6216 25.12C34.9561 22.8988 33.8543 19.4259 32.9234 17.5279C32.3307 16.3171 31.5707 16.0311 31.0361 16.0051C29.5997 15.9345 28.4943 17.6134 28.287 17.9514C28.0579 18.3228 28.167 18.8094 28.527 19.0397Z" fill="#2864F1"/>
<path d="M18.4724 18.2375C18.6688 17.8364 18.887 17.5913 19.0579 17.5838C19.436 17.5615 20.1088 18.2784 20.4288 18.7947C20.6542 19.1624 21.1306 19.2738 21.4906 19.0435C21.8506 18.8133 21.9597 18.3267 21.7342 17.959C21.527 17.621 20.4215 15.9458 18.9851 16.0127C18.4506 16.0387 17.6906 16.3247 17.0979 17.5355C16.1706 19.4261 15.0688 22.8804 14.4033 25.1015C14.9742 24.537 15.6579 24.0987 16.4179 23.809C17.036 21.8478 17.8142 19.5821 18.4724 18.2375Z" fill="#2864F1"/>
<path d="M24.0947 28.2653C24.1602 28.6145 24.1965 28.9748 24.1965 29.3462C24.1965 29.4539 24.1856 29.5579 24.182 29.6619C24.662 29.5765 25.2293 29.5431 25.8184 29.6322C25.8147 29.5356 25.8038 29.4428 25.8038 29.3425C25.8038 28.9562 25.8438 28.5811 25.9129 28.2171C25.2547 28.1131 24.622 28.1651 24.0947 28.2653Z" fill="#2864F1"/>
</svg>
