<svg width="24" height="26" viewBox="0 0 24 26" fill="none" xmlns="http://www.w3.org/2000/svg">
<path d="M5.41419 11.1836C2.6251 11.1836 0.363281 13.4939 0.363281 16.3465C0.363281 19.199 2.6251 21.5056 5.41419 21.5056C8.20328 21.5056 10.4651 19.1953 10.4651 16.3465C10.4651 13.4976 8.20692 11.1836 5.41419 11.1836ZM5.41783 19.9827C3.45055 19.9827 1.85419 18.3485 1.85419 16.3465C1.85419 14.337 3.45419 12.7065 5.41783 12.7065C7.38146 12.7065 8.97783 14.337 8.97783 16.3465C8.97783 18.3522 7.38146 19.9827 5.41783 19.9827Z" fill="#2864F1"/>
<path d="M18.5851 11.1836C15.796 11.1836 13.5342 13.4939 13.5342 16.3427C13.5342 19.1916 15.7924 21.5056 18.5851 21.5056C21.3742 21.5056 23.636 19.1953 23.636 16.3465C23.636 13.4976 21.3742 11.1836 18.5851 11.1836ZM18.5851 19.9827C16.6178 19.9827 15.0215 18.3485 15.0215 16.3465C15.0215 14.337 16.6215 12.7065 18.5851 12.7065C20.5487 12.7065 22.1451 14.337 22.1451 16.3465C22.1451 18.3522 20.5487 19.9827 18.5851 19.9827Z" fill="#2864F1"/>
<path d="M15.527 6.03966C15.887 6.26995 16.3634 6.15852 16.5888 5.79081C16.9088 5.27452 17.5816 4.55766 17.9597 4.57995C18.1307 4.58738 18.3488 4.83252 18.5452 5.23366C19.207 6.58195 19.9816 8.85138 20.6034 10.8162C21.3634 11.106 22.0507 11.5517 22.6216 12.12C21.9561 9.89881 20.8543 6.42595 19.9234 4.52795C19.3307 3.31709 18.5707 3.03109 18.0361 3.00509C16.5997 2.93452 15.4943 4.61338 15.287 4.95138C15.0579 5.32281 15.167 5.80938 15.527 6.03966Z" fill="#2864F1"/>
<path d="M5.47241 5.23755C5.66877 4.8364 5.88696 4.59126 6.05787 4.58383C6.43605 4.56155 7.10877 5.2784 7.42877 5.79469C7.65423 6.1624 8.13059 6.27383 8.49059 6.04355C8.85059 5.81326 8.95968 5.32669 8.73423 4.95898C8.52696 4.62098 7.4215 2.94583 5.98514 3.01269C5.45059 3.03869 4.69059 3.32469 4.09787 4.53555C3.17059 6.42612 2.06877 9.8804 1.40332 12.1015C1.97423 11.537 2.65787 11.0987 3.41787 10.809C4.03605 8.84783 4.81423 6.58212 5.47241 5.23755Z" fill="#2864F1"/>
<path d="M11.0947 15.2653C11.1602 15.6145 11.1965 15.9748 11.1965 16.3462C11.1965 16.4539 11.1856 16.5579 11.182 16.6619C11.662 16.5765 12.2293 16.5431 12.8184 16.6322C12.8147 16.5356 12.8038 16.4428 12.8038 16.3425C12.8038 15.9562 12.8438 15.5811 12.9129 15.2171C12.2547 15.1131 11.622 15.1651 11.0947 15.2653Z" fill="#2864F1"/>
</svg>
