<svg width="74" height="18" viewBox="0 0 74 18" fill="none" xmlns="http://www.w3.org/2000/svg">
<g clip-path="url(#clip0_520_166)">
<path d="M37.8536 17.2628C37.731 17.4761 37.547 17.6409 37.3017 17.7669C37.0563 17.893 36.7496 17.9608 36.3919 17.9608C36.0852 17.9608 35.8093 17.9124 35.5639 17.8154C35.3186 17.7184 35.1244 17.5828 34.9813 17.4082C34.8381 17.2338 34.7666 17.0205 34.7666 16.7878H35.2981C35.3186 17.0108 35.4208 17.1853 35.5946 17.3307C35.7684 17.4761 36.0341 17.544 36.3817 17.544C36.7394 17.544 37.0257 17.4567 37.2403 17.2822C37.455 17.1078 37.5572 16.8848 37.5572 16.623C37.5572 16.4195 37.5061 16.2643 37.3937 16.148C37.2812 16.0317 37.1483 15.9444 36.9848 15.8959C36.8212 15.8378 36.5963 15.7893 36.3203 15.7312C35.983 15.6633 35.7172 15.5857 35.5128 15.5179C35.3083 15.4403 35.1346 15.3143 34.9915 15.1398C34.8484 14.9653 34.7768 14.723 34.7768 14.4224C34.7768 14.025 34.9199 13.7148 35.2061 13.4725C35.4924 13.2301 35.891 13.1138 36.4021 13.1138C36.8416 13.1138 37.1892 13.2204 37.455 13.4239C37.7208 13.6275 37.8945 13.9087 37.9456 14.248H37.3732C37.3528 14.0541 37.2505 13.8893 37.0665 13.7438C36.8825 13.5985 36.6372 13.5306 36.3203 13.5306C35.9932 13.5306 35.7377 13.6081 35.5332 13.7535C35.339 13.9087 35.2368 14.1219 35.2368 14.4127C35.2368 14.6164 35.2879 14.7714 35.4004 14.8877C35.5128 15.0041 35.6559 15.0913 35.8195 15.1495C35.9932 15.2077 36.2079 15.2658 36.4941 15.3143C36.8314 15.3919 37.0972 15.4597 37.3017 15.5276C37.5061 15.5954 37.6696 15.7215 37.8127 15.8863C37.9558 16.0511 38.0274 16.2934 38.0274 16.5842C38.0376 16.8363 37.9763 17.0495 37.8536 17.2628Z" fill="#061317"/>
<path d="M40.4699 6.25V11.8047H39.049V9.49753H36.7899V11.795H35.3691V6.25H36.7899V8.46994H39.049V6.25H40.4699Z" fill="#061317"/>
<path d="M48.3715 6.25L46.3374 10.0113V11.795H44.9165V10.0113L42.8926 6.25H44.5076L45.632 8.76078L46.7462 6.25H48.3715Z" fill="#061317"/>
<path d="M55.6294 10.467C55.3534 10.8935 54.9752 11.2134 54.4845 11.4557C53.9939 11.6884 53.4521 11.8047 52.8388 11.8047H50.7842V6.25H52.8388C53.4521 6.25 54.0041 6.36633 54.4845 6.59899C54.965 6.83164 55.3432 7.16127 55.6192 7.57811C55.8952 8.00464 56.0281 8.47963 56.0281 9.02254C56.0485 9.56538 55.9054 10.0404 55.6294 10.467ZM54.1268 10.3021C54.4334 9.98222 54.597 9.56538 54.597 9.03223C54.597 8.49902 54.4437 8.07249 54.1268 7.76226C53.8201 7.44235 53.3908 7.28727 52.8388 7.28727H52.205V10.7868H52.8388C53.3908 10.7771 53.8201 10.6124 54.1268 10.3021Z" fill="#061317"/>
<path d="M61.527 11.8047L60.2084 9.64292H60.0448V11.8047H58.624V6.25H60.9342C61.3942 6.25 61.7826 6.32755 62.1097 6.48266C62.4367 6.63776 62.6821 6.85103 62.8456 7.10305C63.0092 7.36481 63.091 7.63626 63.091 7.93679C63.091 8.25671 62.9888 8.57656 62.7843 8.87709C62.5799 9.18731 62.2426 9.40061 61.7724 9.52661L63.2034 11.7853H61.527V11.8047ZM60.0448 8.61539H60.924C61.1386 8.61539 61.3124 8.55717 61.435 8.43117C61.5577 8.30517 61.619 8.15002 61.619 7.94649C61.619 7.75257 61.5577 7.5878 61.4248 7.46173C61.2919 7.33573 61.1284 7.26789 60.9137 7.26789H60.0346V8.61539H60.0448Z" fill="#061317"/>
<path d="M69.2445 10.8648H67.1388L66.8117 11.7954H65.2988L67.333 6.23096H69.0707L71.0947 11.7954H69.5716L69.2445 10.8648ZM68.8867 9.83719L68.1916 7.85954L67.4966 9.83719H68.8867Z" fill="#061317"/>
<path d="M71.3402 6.37598V6.6668H70.8904V7.94644H70.4918V6.6668H70.042V6.37598H71.3402Z" fill="#061317"/>
<path d="M73.4566 6.37598V7.94644H73.0579V7.06423L72.6695 7.94644H72.373L71.9846 7.06423V7.94644H71.5859V6.37598H72.0459L72.5264 7.46169L72.9966 6.37598H73.4566Z" fill="#061317"/>
<path d="M43.3931 13.1719V13.5596H42.0847V17.9026H41.5838V13.5596H40.2754V13.1719H43.3931Z" fill="#061317"/>
<path d="M46.245 13.1718V16.3127C46.245 16.7295 46.3677 17.0494 46.6028 17.253C46.8379 17.4566 47.165 17.5632 47.5841 17.5632C48.0032 17.5632 48.3303 17.4566 48.5654 17.253C48.8005 17.0494 48.9231 16.7392 48.9231 16.3127V13.1621H49.4343V16.3127C49.4343 16.8556 49.2605 17.2627 48.9231 17.5342C48.5756 17.8152 48.1361 17.951 47.5943 17.951C47.0526 17.951 46.613 17.8152 46.2655 17.5342C45.918 17.253 45.7441 16.8459 45.7441 16.3127V13.1621H46.245V13.1718Z" fill="#061317"/>
<path d="M55.3838 17.3016C54.934 17.7087 54.3003 17.9123 53.4825 17.9123H51.9492V13.1719H53.4825C54.0141 13.1719 54.4843 13.2688 54.8625 13.453C55.2509 13.6469 55.5474 13.9183 55.7518 14.277C55.9563 14.6357 56.0585 15.0622 56.0585 15.5663C56.0687 16.3224 55.8438 16.8944 55.3838 17.3016ZM55.026 17.0204C55.3736 16.6714 55.5474 16.1867 55.5474 15.5663C55.5474 14.9459 55.3736 14.4612 55.026 14.1122C54.6785 13.7632 54.1674 13.5887 53.4927 13.5887H52.4604V17.5342H53.4927C54.1572 17.5342 54.6682 17.3694 55.026 17.0204Z" fill="#061317"/>
<path d="M58.8695 13.1719V17.9123H58.3584V13.1719H58.8695Z" fill="#061317"/>
<path d="M64.9817 13.4338C65.3701 13.6373 65.6768 13.9281 65.9016 14.2965C66.1265 14.6649 66.2389 15.0817 66.2389 15.547C66.2389 16.0124 66.1265 16.4292 65.9016 16.7976C65.6768 17.166 65.3701 17.4568 64.9817 17.6604C64.5932 17.864 64.1639 17.9706 63.6937 17.9706C63.2235 17.9706 62.7941 17.864 62.4057 17.6604C62.0173 17.4568 61.7107 17.166 61.4858 16.7976C61.2609 16.4292 61.1484 16.0124 61.1484 15.547C61.1484 15.0817 61.2609 14.6649 61.4858 14.2965C61.7107 13.9281 62.0173 13.6373 62.4057 13.4338C62.7941 13.2301 63.2235 13.1235 63.6937 13.1235C64.1639 13.1235 64.5932 13.2205 64.9817 13.4338ZM62.6613 13.7924C62.3546 13.9572 62.1093 14.1899 61.9355 14.4904C61.7618 14.7909 61.6697 15.1399 61.6697 15.5373C61.6697 15.9348 61.7618 16.2838 61.9355 16.5843C62.1093 16.8848 62.3546 17.1175 62.6613 17.292C62.968 17.4568 63.3155 17.5441 63.6937 17.5441C64.0719 17.5441 64.4195 17.4568 64.7261 17.292C65.0328 17.1272 65.2781 16.8945 65.4519 16.5843C65.6257 16.2838 65.7177 15.9348 65.7177 15.5373C65.7177 15.1399 65.6257 14.7909 65.4519 14.4904C65.2781 14.1899 65.0328 13.9572 64.7261 13.7924C64.4195 13.6276 64.0719 13.5404 63.6937 13.5404C63.3155 13.5404 62.968 13.6276 62.6613 13.7924Z" fill="#061317"/>
<path d="M68.9074 17.5246H71.4322V17.9123H68.335V17.5246L70.8598 13.5596H68.335V13.1719H71.4322V13.5596L68.9074 17.5246Z" fill="#061317"/>
<path d="M15.2982 16.2051V17.2989H12.2166V16.2051C12.438 16.2051 12.641 16.1176 12.7886 15.9776C12.9362 15.8375 13.0285 15.6451 13.0285 15.435V9.36253C13.0285 5.91497 10.0853 3.12369 6.45005 3.12369C4.53094 3.12369 2.80558 3.90245 1.60614 5.13621L0.665039 4.0512C2.12282 2.62493 4.18033 1.73242 6.44082 1.73242C10.8787 1.73242 14.4863 5.14496 14.4863 9.36253V15.435C14.4863 15.8639 14.8461 16.2051 15.2982 16.2051Z" fill="#061317"/>
<path d="M30.3007 5.13631L31.2325 4.05129L26.9607 0H26.6562L30.3007 5.13631Z" fill="#061317"/>
<path d="M1.59691 5.13631L0.665039 4.05129L4.93691 0H5.24137L1.59691 5.13631Z" fill="#061317"/>
<path d="M12.2907 11.7252V17.0365H10.8237V11.1477C10.8237 8.94269 9.0615 7.03518 6.7364 6.89517C5.40779 6.81642 4.18989 7.30643 3.34105 8.12896L3.33183 8.11144L2.53835 7.2014L2.40918 7.05269C3.48868 6.06391 4.96492 5.4689 6.58878 5.50391C9.7258 5.56515 12.2907 8.19895 12.2907 11.1739V11.7252Z" fill="#061317"/>
<path d="M29.4885 7.0525L29.3593 7.20127L28.5658 8.11131L28.5566 8.12876C27.6985 7.3063 26.4807 6.81628 25.152 6.89503C22.8362 7.03505 21.0647 8.94257 21.0647 11.1476V17.0714H19.5977V11.7251V11.1125C19.5977 8.07628 22.1442 5.54751 25.3458 5.50376C26.9604 5.47751 28.4182 6.07252 29.4885 7.0525Z" fill="#061317"/>
<path d="M28.5568 8.12888L29.4887 7.05262L26.6931 4.40137H26.4531L28.5568 8.12888Z" fill="#061317"/>
<path d="M3.34105 8.12888L2.40918 7.05262L5.20481 4.40137H5.4447L3.34105 8.12888Z" fill="#061317"/>
<path d="M27.7723 10.4565L27.6431 10.614L27.6339 10.6228L26.8497 11.5328C26.4345 11.209 25.8993 11.034 25.3088 11.069C24.1463 11.139 23.2606 12.0928 23.2606 13.1953V15.0328C23.2606 16.2928 22.1902 17.3078 20.8616 17.3078H19.5977V15.9166H20.8616C21.3783 15.9166 21.7936 15.5228 21.7936 15.0328V13.2128C21.7936 11.279 23.4267 9.66898 25.4749 9.67777C26.3422 9.67777 27.1449 9.96653 27.7723 10.4565Z" fill="#061317"/>
<path d="M12.2904 15.9164V17.3077H11.0264C9.69778 17.3077 8.62752 16.2926 8.62752 15.0326V13.1951C8.62752 12.0926 7.74179 11.1389 6.57925 11.0689C5.99798 11.0339 5.45361 11.2176 5.04765 11.5326L4.2634 10.6226L4.25417 10.6139L4.125 10.4564C4.78931 9.9401 5.63814 9.64262 6.57002 9.67758C8.55372 9.73885 10.0945 11.3314 10.0945 13.2126V15.0326C10.0945 15.5227 10.5098 15.9164 11.0264 15.9164H12.2904Z" fill="#061317"/>
<path d="M26.8404 11.5327L27.7722 10.4564L25.6686 8.46143H25.4287L26.8404 11.5327Z" fill="#061317"/>
<path d="M5.04765 11.5327L4.125 10.4564L6.22864 8.46143H6.46853L5.04765 11.5327Z" fill="#061317"/>
<path d="M17.6053 10.7539H14.293V12.1452H17.6053V10.7539Z" fill="#061317"/>
<path d="M31.2328 4.0512L30.301 5.12746C29.1015 3.8937 27.3762 3.11494 25.4571 3.11494C21.8218 3.11494 18.8786 5.90622 18.8786 9.35374V15.3476C18.8786 15.8201 19.2845 16.1963 19.7736 16.1963V17.2901H16.5166V16.1963C16.7658 16.1963 16.9872 16.1001 17.144 15.9513C17.3101 15.7938 17.4024 15.5838 17.4024 15.3476V9.36253C17.4024 5.15371 21.0007 1.73242 25.4479 1.73242C27.7176 1.73242 29.7751 2.62493 31.2328 4.0512Z" fill="#061317"/>
</g>
<defs>
<clipPath id="clip0_520_166">
<rect width="73" height="18" fill="white" transform="translate(0.456055)"/>
</clipPath>
</defs>
</svg>
