<svg width="16" height="16" viewBox="0 0 16 16" fill="none" xmlns="http://www.w3.org/2000/svg">
<path d="M6.00033 11.3327H4.00033C3.56259 11.3327 3.12913 11.2465 2.72471 11.0789C2.3203 10.9114 1.95283 10.6659 1.6433 10.3564C1.01818 9.73125 0.666992 8.8834 0.666992 7.99935C0.666992 7.11529 1.01818 6.26745 1.6433 5.64233C2.26842 5.01721 3.11627 4.66602 4.00033 4.66602H6.00033M10.0003 4.66602H12.0003C12.4381 4.66602 12.8715 4.75223 13.2759 4.91975C13.6804 5.08727 14.0478 5.3328 14.3573 5.64233C14.6669 5.95185 14.9124 6.31932 15.0799 6.72374C15.2474 7.12816 15.3337 7.56161 15.3337 7.99935C15.3337 8.43709 15.2474 8.87054 15.0799 9.27496C14.9124 9.67938 14.6669 10.0468 14.3573 10.3564C14.0478 10.6659 13.6804 10.9114 13.2759 11.0789C12.8715 11.2465 12.4381 11.3327 12.0003 11.3327H10.0003V4.66602Z" stroke="#878787" stroke-linecap="round" stroke-linejoin="round"/>
<path d="M5.33301 8H10.6663" stroke="#878787" stroke-linecap="round" stroke-linejoin="round"/>
</svg>
