<svg width="36" height="36" viewBox="0 0 36 36" fill="none" xmlns="http://www.w3.org/2000/svg">
<path d="M25.3125 0.28126H3.9375C3.26904 0.279358 2.62712 0.542698 2.15258 1.0135C1.67804 1.48431 1.40963 2.12412 1.40625 2.79258V34.8817C1.40719 35.1045 1.4966 35.3179 1.65482 35.4749C1.81304 35.6319 2.02712 35.7196 2.25 35.7188H13.4994C13.6099 35.7197 13.7195 35.6987 13.8219 35.657C13.9243 35.6154 14.0173 35.5538 14.0958 35.476C14.1743 35.3982 14.2366 35.3056 14.2791 35.2036C14.3216 35.1016 14.3434 34.9922 14.3434 34.8817C14.3434 34.7711 14.3216 34.6617 14.2791 34.5597C14.2366 34.4577 14.1743 34.3651 14.0958 34.2873C14.0173 34.2095 13.9243 34.1479 13.8219 34.1063C13.7195 34.0646 13.6099 34.0436 13.4994 34.0445H3.09375V2.79258C3.09488 2.56976 3.18435 2.35649 3.34253 2.19955C3.50071 2.04262 3.71468 1.95484 3.9375 1.95547H25.3125C25.5353 1.95484 25.7493 2.04262 25.9075 2.19955C26.0657 2.35649 26.1551 2.56976 26.1562 2.79258V14.8044C26.1562 15.0282 26.2451 15.2428 26.4034 15.401C26.5616 15.5592 26.7762 15.6481 27 15.6481C27.2238 15.6481 27.4384 15.5592 27.5966 15.401C27.7549 15.2428 27.8438 15.0282 27.8438 14.8044V2.79258C27.8404 2.12412 27.572 1.48431 27.0974 1.0135C26.6229 0.542698 25.981 0.279358 25.3125 0.28126Z" fill="black"/>
<path d="M13.2188 5.90625C13.2184 5.53341 13.0701 5.17595 12.8064 4.91231C12.5428 4.64868 12.1853 4.50039 11.8125 4.5H6.1875C5.81466 4.50039 5.4572 4.64868 5.19356 4.91231C4.92993 5.17595 4.78164 5.53341 4.78125 5.90625V10.4062C4.78164 10.7791 4.92993 11.1365 5.19356 11.4002C5.4572 11.6638 5.81466 11.8121 6.1875 11.8125H11.8125C12.1853 11.8121 12.5428 11.6638 12.8064 11.4002C13.0701 11.1365 13.2184 10.7791 13.2188 10.4062V5.90625ZM11.5312 10.125H6.46875V6.1875H11.5312V10.125Z" fill="black"/>
<path d="M23.0625 4.5H17.4375C17.0647 4.50039 16.7072 4.64868 16.4436 4.91231C16.1799 5.17595 16.0316 5.53341 16.0312 5.90625V10.4062C16.0316 10.7791 16.1799 11.1365 16.4436 11.4002C16.7072 11.6638 17.0647 11.8121 17.4375 11.8125H23.0625C23.4353 11.8121 23.7928 11.6638 24.0564 11.4002C24.3201 11.1365 24.4684 10.7791 24.4688 10.4062V5.90625C24.4684 5.53341 24.3201 5.17595 24.0564 4.91231C23.7928 4.64868 23.4353 4.50039 23.0625 4.5ZM22.7812 10.125H17.7188V6.1875H22.7812V10.125Z" fill="black"/>
<path d="M13.2188 15.75C13.2184 15.3772 13.0701 15.0197 12.8064 14.7561C12.5428 14.4924 12.1853 14.3441 11.8125 14.3438H6.1875C5.81466 14.3441 5.4572 14.4924 5.19356 14.7561C4.92993 15.0197 4.78164 15.3772 4.78125 15.75V20.25C4.78159 20.6229 4.92986 20.9803 5.19351 21.244C5.45716 21.5076 5.81464 21.6559 6.1875 21.6562H11.8125C12.1854 21.6559 12.5428 21.5076 12.8065 21.244C13.0701 20.9803 13.2184 20.6229 13.2188 20.25V15.75ZM11.5312 19.9688H6.46875V16.0312H11.5312V19.9688Z" fill="black"/>
<path d="M11.8125 24.1875H6.1875C5.81464 24.1878 5.45716 24.3361 5.19351 24.5998C4.92986 24.8634 4.78159 25.2209 4.78125 25.5938V30.0938C4.78159 30.4666 4.92986 30.8241 5.19351 31.0877C5.45716 31.3514 5.81464 31.4997 6.1875 31.5H11.8125C12.1854 31.4997 12.5428 31.3514 12.8065 31.0877C13.0701 30.8241 13.2184 30.4666 13.2188 30.0938V25.5938C13.2184 25.2209 13.0701 24.8634 12.8065 24.5998C12.5428 24.3361 12.1854 24.1878 11.8125 24.1875ZM11.5312 29.8125H6.46875V25.875H11.5312V29.8125Z" fill="black"/>
<path d="M22.7812 21.0938H19.9688V23.3438H22.7812V21.0938Z" fill="#114FF5"/>
<path d="M22.2188 29.25V35.7188H24.4688V28.4062H23.0625C22.8388 28.4065 22.6243 28.4955 22.4661 28.6536C22.308 28.8118 22.219 29.0263 22.2188 29.25Z" fill="#114FF5"/>
<path d="M27.5625 28.4062H26.1562V35.7188H28.4062V29.25C28.406 29.0263 28.317 28.8118 28.1589 28.6536C28.0007 28.4955 27.7862 28.4065 27.5625 28.4062Z" fill="#114FF5"/>
<path d="M30.6562 21.0938H27.8438V23.3438H30.6562V21.0938Z" fill="#114FF5"/>
<path d="M31.5 17.1562H19.125C18.3048 17.1572 17.5184 17.4835 16.9385 18.0635C16.3585 18.6434 16.0322 19.4298 16.0312 20.25V34.875C16.0313 35.0988 16.1202 35.3133 16.2784 35.4716C16.4367 35.6298 16.6512 35.7187 16.875 35.7188H20.5312V29.25C20.532 28.5789 20.7989 27.9355 21.2734 27.4609C21.748 26.9864 22.3914 26.7195 23.0625 26.7188H27.5625C28.2336 26.7195 28.877 26.9864 29.3516 27.4609C29.8261 27.9355 30.093 28.5789 30.0938 29.25V35.7188H33.75C33.9738 35.7187 34.1883 35.6298 34.3466 35.4716C34.5048 35.3133 34.5937 35.0988 34.5938 34.875V20.25C34.5928 19.4298 34.2665 18.6434 33.6865 18.0635C33.1066 17.4835 32.3202 17.1572 31.5 17.1562ZM24.4688 24.1875C24.4687 24.4113 24.3798 24.6258 24.2216 24.7841C24.0633 24.9423 23.8488 25.0312 23.625 25.0312H19.125C18.9012 25.0312 18.6867 24.9423 18.5284 24.7841C18.3702 24.6258 18.2813 24.4113 18.2812 24.1875V20.25C18.2813 20.0262 18.3702 19.8117 18.5284 19.6534C18.6867 19.4952 18.9012 19.4063 19.125 19.4062H23.625C23.8488 19.4063 24.0633 19.4952 24.2216 19.6534C24.3798 19.8117 24.4687 20.0262 24.4688 20.25V24.1875ZM32.3438 24.1875C32.3437 24.4113 32.2548 24.6258 32.0966 24.7841C31.9383 24.9423 31.7238 25.0312 31.5 25.0312H27C26.7762 25.0312 26.5617 24.9423 26.4034 24.7841C26.2452 24.6258 26.1563 24.4113 26.1562 24.1875V20.25C26.1563 20.0262 26.2452 19.8117 26.4034 19.6534C26.5617 19.4952 26.7762 19.4063 27 19.4062H31.5C31.7238 19.4063 31.9383 19.4952 32.0966 19.6534C32.2548 19.8117 32.3437 20.0262 32.3438 20.25V24.1875Z" fill="#114FF5"/>
</svg>
