<svg width="48" height="18" viewBox="0 0 48 18" fill="none" xmlns="http://www.w3.org/2000/svg">
<path d="M36.7444 16.1601C36.5153 15.9271 36.3695 15.6735 36.7028 15.2716L37.5968 14.1508C37.8051 13.8966 38.0753 13.7489 38.4705 14.1084C39.0942 14.7215 40.3846 15.3776 41.6112 15.3776C42.9218 15.3776 44.1283 14.7215 44.1283 13.347V11.8237C43.4837 12.5639 42.5891 13.0293 41.3619 13.0293C38.9282 13.0293 37.2432 11.3165 37.2432 8.86292L37.2224 6.89593V6.26105L36.3701 6.13396C35.6208 6.00686 35.4547 5.66914 35.4547 5.16136V4.12461C35.4547 3.51152 35.7666 3.1732 36.3701 3.1732H39.8019C40.3846 3.1732 40.7167 3.51212 40.7167 4.14579V8.20685C40.7167 9.20124 41.2785 9.92025 42.2356 9.92025C43.2129 9.92025 43.795 9.18005 43.795 8.18567V4.29407C43.795 3.68098 44.1283 3.34205 44.752 3.34205H46.5197C47.103 3.34205 47.4565 3.68098 47.4565 4.29407V12.628C47.4565 16.1807 44.9603 18 41.5702 18C39.4067 18 37.8051 17.2174 36.7444 16.1601ZM27.2174 14.0025C26.6145 14.0025 26.2818 13.6636 26.2818 13.0505V4.29407C26.2818 3.68098 26.6145 3.34205 27.2174 3.34205H28.3203C28.9232 3.34205 29.2559 3.68098 29.2559 4.29407V5.24549C30.0052 3.95575 31.045 3.2785 32.3764 3.29969L33.4162 3.32087C34.0191 3.34205 34.3732 3.6598 34.3732 4.27289V5.11899C34.3732 5.7109 34.0191 6.07101 33.4162 6.07101H32.3764C30.6498 6.07101 29.9219 6.87475 29.9219 8.69345V13.0511C29.9219 13.6642 29.5684 14.0025 28.9857 14.0025H27.2174ZM20.9983 8.71464C20.9983 7.34017 20.0627 6.30342 18.7938 6.30342C17.504 6.30342 16.5886 7.34017 16.5886 8.71464C16.5886 10.0897 17.504 11.1259 18.773 11.1259C20.0211 11.1259 20.9989 10.0685 20.9989 8.71464H20.9983ZM12.9902 8.71464C12.9902 5.56323 15.1745 3.15201 18.1903 3.15201C19.5634 3.15201 20.7281 3.72274 21.581 4.61121V4.16697C21.581 3.57506 21.9137 3.21496 22.5375 3.21496H23.5362C24.1391 3.21496 24.4718 3.57506 24.4718 4.16697V13.0505C24.4718 13.6642 24.1391 14.0025 23.5362 14.0025H22.5375C21.9346 14.0025 21.581 13.6854 21.581 13.114V12.6904C20.7906 13.643 19.6259 14.2773 18.1903 14.2773C15.1953 14.2773 12.9902 11.866 12.9902 8.71464ZM0.925859 12.3097C0.447928 11.8872 0.343771 11.4218 0.759803 10.9358L1.52937 9.96261C1.946 9.49719 2.38227 9.43364 2.88162 9.79315C3.69286 10.5128 5.02427 11.1259 6.14738 11.1259C7.29132 11.1259 8.04006 10.6816 8.04006 10.005C8.04006 9.09532 6.95861 8.96823 5.5647 8.5246C3.50537 7.9109 1.155 6.76884 1.155 4.14579C1.155 1.69281 3.29766 0 6.39676 0C8.22694 0 9.82858 0.593121 10.9314 1.50217C11.4302 1.90404 11.576 2.36946 11.1808 2.85606L10.4529 3.78629C10.0577 4.27289 9.5792 4.33704 9.10067 3.95575C8.41443 3.40621 7.51987 2.94018 6.48009 2.94018C5.52304 2.94018 4.92012 3.36384 4.92012 3.97693C4.92012 4.75949 5.89741 5.14018 6.91695 5.45731C9.20483 6.17632 11.8254 6.95948 11.8254 10.005C11.8254 12.7757 9.30898 14.2567 6.37593 14.2567C4.12972 14.2567 2.17395 13.4947 0.926454 12.3103L0.925859 12.3097Z" fill="#2BD8B5"/>
</svg>
