<svg width="22" height="20" viewBox="0 0 22 20" fill="none" xmlns="http://www.w3.org/2000/svg">
<path d="M11.867 10.6614L3.28373 11.4776L1.02462 18.5743C0.958647 18.7796 0.955423 18.9994 1.01535 19.2064C1.07528 19.4135 1.19572 19.5987 1.36176 19.7391C1.52779 19.8796 1.73213 19.9691 1.94944 19.9966C2.16675 20.024 2.3875 19.9883 2.58432 19.8937L21.396 10.9453C21.5762 10.8589 21.7282 10.7245 21.8345 10.5574C21.9408 10.3903 21.9971 10.1972 21.9971 10.0001C21.9971 9.80309 21.9408 9.61001 21.8345 9.4429C21.7282 9.27579 21.5762 9.14137 21.396 9.05498L2.59746 0.100146C2.40063 0.00557094 2.17989 -0.0301952 1.96257 -0.00272073C1.74526 0.0247537 1.54093 0.114261 1.37489 0.254712C1.20885 0.395163 1.08841 0.580385 1.02848 0.787429C0.968557 0.994473 0.971781 1.21424 1.03776 1.4195L3.29686 8.51628L11.8637 9.3324C12.0308 9.34863 12.1857 9.42531 12.2984 9.54753C12.4112 9.66975 12.4736 9.82878 12.4736 9.99369C12.4736 10.1586 12.4112 10.3176 12.2984 10.4399C12.1857 10.5621 12.0308 10.6388 11.8637 10.655L11.867 10.6614Z" fill="#2864F1"/>
</svg>
