<svg width="50" height="50" viewBox="0 0 50 50" fill="none" xmlns="http://www.w3.org/2000/svg">
<circle cx="25" cy="25" r="25" fill="white"/>
<g clip-path="url(#clip0_81_1510)">
<path d="M26.867 25.6614L18.2837 26.4776L16.0246 33.5743C15.9586 33.7796 15.9554 33.9994 16.0153 34.2064C16.0753 34.4135 16.1957 34.5987 16.3618 34.7391C16.5278 34.8796 16.7321 34.9691 16.9494 34.9966C17.1668 35.024 17.3875 34.9883 17.5843 34.8937L36.396 25.9453C36.5762 25.8589 36.7282 25.7245 36.8345 25.5574C36.9408 25.3903 36.9971 25.1972 36.9971 25.0001C36.9971 24.8031 36.9408 24.61 36.8345 24.4429C36.7282 24.2758 36.5762 24.1414 36.396 24.055L17.5975 15.1001C17.4006 15.0056 17.1799 14.9698 16.9626 14.9973C16.7453 15.0248 16.5409 15.1143 16.3749 15.2547C16.2089 15.3952 16.0884 15.5804 16.0285 15.7874C15.9686 15.9945 15.9718 16.2142 16.0378 16.4195L18.2969 23.5163L26.8637 24.3324C27.0308 24.3486 27.1857 24.4253 27.2984 24.5475C27.4112 24.6697 27.4736 24.8288 27.4736 24.9937C27.4736 25.1586 27.4112 25.3176 27.2984 25.4399C27.1857 25.5621 27.0308 25.6388 26.8637 25.655L26.867 25.6614Z" fill="#2864F1"/>
</g>
<defs>
<clipPath id="clip0_81_1510">
<rect width="22" height="20" fill="white" transform="translate(15 15)"/>
</clipPath>
</defs>
</svg>
