<svg width="50" height="50" viewBox="0 0 50 50" fill="none" xmlns="http://www.w3.org/2000/svg">
<circle cx="25" cy="25" r="25" fill="#2864F1"/>
<g clip-path="url(#clip0_81_1644)">
<path d="M25.867 25.6614L17.2837 26.4776L15.0246 33.5743C14.9586 33.7796 14.9554 33.9994 15.0153 34.2064C15.0753 34.4135 15.1957 34.5987 15.3618 34.7391C15.5278 34.8796 15.7321 34.9691 15.9494 34.9966C16.1668 35.024 16.3875 34.9883 16.5843 34.8937L35.396 25.9453C35.5762 25.8589 35.7282 25.7245 35.8345 25.5574C35.9408 25.3903 35.9971 25.1972 35.9971 25.0001C35.9971 24.8031 35.9408 24.61 35.8345 24.4429C35.7282 24.2758 35.5762 24.1414 35.396 24.055L16.5975 15.1001C16.4006 15.0056 16.1799 14.9698 15.9626 14.9973C15.7453 15.0248 15.5409 15.1143 15.3749 15.2547C15.2089 15.3952 15.0884 15.5804 15.0285 15.7874C14.9686 15.9945 14.9718 16.2142 15.0378 16.4195L17.2969 23.5163L25.8637 24.3324C26.0308 24.3486 26.1857 24.4253 26.2984 24.5475C26.4112 24.6697 26.4736 24.8288 26.4736 24.9937C26.4736 25.1586 26.4112 25.3176 26.2984 25.4399C26.1857 25.5621 26.0308 25.6388 25.8637 25.655L25.867 25.6614Z" fill="white"/>
</g>
<defs>
<clipPath id="clip0_81_1644">
<rect width="22" height="20" fill="white" transform="translate(14 15)"/>
</clipPath>
</defs>
</svg>
