<svg width="50" height="50" viewBox="0 0 50 50" fill="none" xmlns="http://www.w3.org/2000/svg">
<circle cx="25" cy="25" r="25" fill="#2864F1"/>
<path d="M17.2805 30.4833C16.5053 30.7273 15.7652 30.9712 15.2014 31.2152C12.6643 32.4348 13.0167 36.1985 13.0167 36.3727C13.0519 36.7212 13.369 37 13.7214 37H36.274C36.6264 37 36.9435 36.7212 36.9788 36.3727C36.9788 36.1985 37.3664 32.4348 34.8292 31.2152C34.2654 30.9364 33.5254 30.7273 32.7502 30.4833C30.9882 29.9258 28.8035 29.2636 28.4158 27.9742C28.4511 27.7652 28.5216 27.1379 29.0149 26.6848C29.9663 25.7439 30.9882 23.1303 30.9882 20.5515V20.5167C30.9882 20.3773 30.7063 16.753 28.6273 15.2197C28.3454 14.9409 27.1825 14 24.9977 14H24.9625C22.8129 14 21.6501 14.9409 21.3682 15.1848C19.2539 16.7182 19.0072 20.3424 19.0072 20.4818V20.5167C19.0072 23.0955 20.0291 25.7091 20.9805 26.65C21.4739 27.1379 21.5443 27.7652 21.5796 27.9394C21.2272 29.2636 19.0424 29.9258 17.2805 30.4833Z" fill="white"/>
</svg>
