<svg width="50" height="50" viewBox="0 0 50 50" fill="none" xmlns="http://www.w3.org/2000/svg">
<circle cx="25" cy="25" r="25" fill="white"/>
<path d="M17.2805 27.4833C16.5053 27.7273 15.7652 27.9712 15.2014 28.2152C12.6643 29.4348 13.0167 33.1985 13.0167 33.3727C13.0519 33.7212 13.369 34 13.7214 34H36.274C36.6264 34 36.9435 33.7212 36.9788 33.3727C36.9788 33.1985 37.3664 29.4348 34.8292 28.2152C34.2654 27.9364 33.5254 27.7273 32.7502 27.4833C30.9882 26.9258 28.8035 26.2636 28.4158 24.9742C28.4511 24.7652 28.5216 24.1379 29.0149 23.6848C29.9663 22.7439 30.9882 20.1303 30.9882 17.5515V17.5167C30.9882 17.3773 30.7063 13.753 28.6273 12.2197C28.3454 11.9409 27.1825 11 24.9977 11H24.9625C22.8129 11 21.6501 11.9409 21.3682 12.1848C19.2539 13.7182 19.0072 17.3424 19.0072 17.4818V17.5167C19.0072 20.0955 20.0291 22.7091 20.9805 23.65C21.4739 24.1379 21.5443 24.7652 21.5796 24.9394C21.2272 26.2636 19.0424 26.9258 17.2805 27.4833Z" fill="#2864F1"/>
</svg>
