<svg width="24" height="23" viewBox="0 0 24 23" fill="none" xmlns="http://www.w3.org/2000/svg">
<path d="M4.2805 16.4833C3.50526 16.7273 2.76525 16.9712 2.20143 17.2152C-0.33573 18.4348 0.0166533 22.1985 0.0166533 22.3727C0.0518917 22.7212 0.369037 23 0.721421 23H23.274C23.6264 23 23.9435 22.7212 23.9788 22.3727C23.9788 22.1985 24.3664 18.4348 21.8292 17.2152C21.2654 16.9364 20.5254 16.7273 19.7502 16.4833C17.9882 15.9258 15.8035 15.2636 15.4158 13.9742C15.4511 13.7652 15.5216 13.1379 16.0149 12.6848C16.9663 11.7439 17.9882 9.1303 17.9882 6.55151V6.51667C17.9882 6.37727 17.7063 2.75303 15.6273 1.2197C15.3454 0.940909 14.1825 0 11.9977 0H11.9625C9.81293 0 8.65006 0.940909 8.36815 1.18485C6.25385 2.71818 6.00718 6.34242 6.00718 6.48182V6.51667C6.00718 9.09546 7.02909 11.7091 7.98053 12.65C8.47387 13.1379 8.54435 13.7652 8.57959 13.9394C8.2272 15.2636 6.04242 15.9258 4.2805 16.4833Z" fill="#2864F1"/>
</svg>
